<?xml version="1.0" standalone="no"?>
<svg viewBox="0 0 200 200" xmlns="http://www.w3.org/2000/svg">
  <path fill="#F1C21B" d="M34.9,-53.9C45.7,-47.3,55.2,-38.5,60.4,-27.5C65.5,-16.5,66.3,-3.4,64.5,9.3C62.8,22.1,58.5,34.6,51.1,45.7C43.6,56.7,33,66.4,20.6,69.8C8.3,73.2,-5.8,70.3,-17.1,64.2C-28.4,58.2,-37.1,48.9,-48.8,39.8C-60.4,30.7,-75.2,21.8,-76.9,11C-78.5,0.1,-67.2,-12.7,-61.2,-28.8C-55.2,-45,-54.6,-64.4,-45.3,-71.7C-35.9,-79,-18,-74,-3,-69.4C12,-64.8,24.1,-60.5,34.9,-53.9Z" transform="translate(100 100)" />
</svg>
