<?xml version="1.0" encoding="utf-8"?>
<!-- Generator: Adobe Illustrator 17.0.0, SVG Export Plug-In . SVG Version: 6.00 Build 0)  -->
<!DOCTYPE svg PUBLIC "-//W3C//DTD SVG 1.1//EN" "http://www.w3.org/Graphics/SVG/1.1/DTD/svg11.dtd">
<svg version="1.1" id="Capa_1" xmlns="http://www.w3.org/2000/svg" xmlns:xlink="http://www.w3.org/1999/xlink" x="0px" y="0px"
	 width="141.73px" height="141.73px" viewBox="0 0 141.73 141.73" enable-background="new 0 0 141.73 141.73" xml:space="preserve">
<g id="XMLID_1_">
	<g>
		<path d="M71,3.94c37.29,0,67.51,30.22,67.51,67.5s-30.22,67.5-67.51,67.5c-37.28,0-67.5-30.22-67.5-67.5S33.72,3.94,71,3.94z
			 M110.09,84.19h-8.36c0,5.32-3.01,10.41-8.48,14.34c-5.88,4.23-13.78,6.56-22.25,6.56c-8.46,0-16.36-2.33-22.24-6.56
			c-5.47-3.93-8.48-9.02-8.48-14.34h-8.36c0,8.08,4.25,15.59,11.96,21.13c7.29,5.24,16.93,8.13,27.12,8.13
			c10.2,0,19.84-2.89,27.13-8.13C105.84,99.78,110.09,92.27,110.09,84.19z M104.46,56.39c0-5.88-4.77-10.66-10.66-10.66
			s-10.66,4.78-10.66,10.66c0,5.89,4.77,10.66,10.66,10.66S104.46,62.28,104.46,56.39z M59.93,56.39c0-5.88-4.77-10.66-10.66-10.66
			s-10.66,4.78-10.66,10.66c0,5.89,4.77,10.66,10.66,10.66S59.93,62.28,59.93,56.39z"/>
	</g>
	<g>
	</g>
</g>
</svg>
