<?xml version="1.0" encoding="utf-8"?>
<!-- Generator: Adobe Illustrator 17.0.0, SVG Export Plug-In . SVG Version: 6.00 Build 0)  -->
<!DOCTYPE svg PUBLIC "-//W3C//DTD SVG 1.1//EN" "http://www.w3.org/Graphics/SVG/1.1/DTD/svg11.dtd">
<svg version="1.1" id="Capa_1" xmlns="http://www.w3.org/2000/svg" xmlns:xlink="http://www.w3.org/1999/xlink" x="0px" y="0px"
	 width="141.73px" height="141.73px" viewBox="0 0 141.73 141.73" enable-background="new 0 0 141.73 141.73" xml:space="preserve">
<g id="XMLID_2_">
	<g>
		<path d="M70.86,3.94c37.28,0,67.51,30.22,67.51,67.5s-30.23,67.5-67.51,67.5s-67.5-30.22-67.5-67.5S33.58,3.94,70.86,3.94z
			 M109.94,104.67v-8.36H31.78v8.36H109.94z M104.32,56.39c0-5.88-4.77-10.66-10.66-10.66C87.77,45.73,83,50.51,83,56.39
			c0,5.89,4.77,10.66,10.66,10.66C99.55,67.05,104.32,62.28,104.32,56.39z M59.79,56.39c0-5.88-4.78-10.66-10.66-10.66
			c-5.89,0-10.66,4.78-10.66,10.66c0,5.89,4.77,10.66,10.66,10.66C55.01,67.05,59.79,62.28,59.79,56.39z"/>
	</g>
	<g>
	</g>
</g>
</svg>
