<?xml version="1.0" encoding="utf-8"?>
<!-- Generator: Adobe Illustrator 17.0.0, SVG Export Plug-In . SVG Version: 6.00 Build 0)  -->
<!DOCTYPE svg PUBLIC "-//W3C//DTD SVG 1.1//EN" "http://www.w3.org/Graphics/SVG/1.1/DTD/svg11.dtd">
<svg version="1.1" id="Capa_1" xmlns="http://www.w3.org/2000/svg" xmlns:xlink="http://www.w3.org/1999/xlink" x="0px" y="0px"
	 width="141.73px" height="141.73px" viewBox="0 0 141.73 141.73" enable-background="new 0 0 141.73 141.73" xml:space="preserve">
<g id="XMLID_3_">
	<g>
		<path d="M70.87,3.94c37.28,0,67.5,30.22,67.5,67.5s-30.22,67.5-67.5,67.5S3.36,108.72,3.36,71.44S33.59,3.94,70.87,3.94z
			 M101.59,113.45h8.36c0-8.09-4.25-15.59-11.96-21.14c-7.29-5.24-16.92-8.12-27.12-8.12s-19.83,2.88-27.13,8.12
			c-7.71,5.55-11.95,13.05-11.95,21.14h8.36c0-5.33,3.01-10.42,8.47-14.35c5.89-4.22,13.79-6.55,22.25-6.55s16.36,2.33,22.24,6.55
			C98.58,103.03,101.59,108.12,101.59,113.45z M104.32,56.39c0-5.88-4.77-10.66-10.65-10.66c-5.89,0-10.66,4.78-10.66,10.66
			c0,5.89,4.77,10.66,10.66,10.66C99.55,67.05,104.32,62.28,104.32,56.39z M59.79,56.39c0-5.88-4.77-10.66-10.66-10.66
			c-5.88,0-10.65,4.78-10.65,10.66c0,5.89,4.77,10.66,10.65,10.66C55.02,67.05,59.79,62.28,59.79,56.39z"/>
	</g>
	<g>
	</g>
</g>
</svg>
